# xmcd CD database file
#
# Track frame offsets:
#	150
#	23341
#	42611
#	66867
#	84915
#	98354
#	121542
#	145340
#	166645
#	192807
#
# Disc length: 2773 seconds
#
# Revision: 4
# Processed by: cddbd v1.5.2PL0 Copyright (c) Steve Scherf et al.
# Submitted via: CDex 1.60beta1
#
DISCID=6b0ad30a
DTITLE=Dimmu Borgir - In Sorte Diaboli
DYEAR=2007
DGENRE=Black Metal
TTITLE0=The Serpentine Offering
TTITLE1=The Chosen Legacy
TTITLE2=The Conspiracy Unfolds
TTITLE3=The Sacrilegious Scorn
TTITLE4=The Fallen Arises
TTITLE5=The Sinister Awakening
TTITLE6=The Fundamental Alienation
TTITLE7=The Invaluable Darknes
TTITLE8=The Foreshadowing Furnace
TTITLE9=Black Metal
EXTD=YEAR: 2007
EXTT0=
EXTT1=
EXTT2=
EXTT3=
EXTT4=
EXTT5=
EXTT6=
EXTT7=
EXTT8=
EXTT9=
PLAYORDER=
